<mxfile host="Electron" agent="Mozilla/5.0 (Windows NT 10.0; Win64; x64) AppleWebKit/537.36 (KHTML, like Gecko) draw.io/26.0.9 Chrome/128.0.6613.186 Electron/32.2.5 Safari/537.36" version="26.0.9">
  <diagram id="C5RBs43oDa-KdzZeNtuy" name="Page-1">
    <mxGraphModel dx="2261" dy="2005" grid="1" gridSize="10" guides="1" tooltips="1" connect="1" arrows="1" fold="1" page="1" pageScale="1" pageWidth="827" pageHeight="1169" math="0" shadow="0">
      <root>
        <mxCell id="WIyWlLk6GJQsqaUBKTNV-0" />
        <mxCell id="WIyWlLk6GJQsqaUBKTNV-1" parent="WIyWlLk6GJQsqaUBKTNV-0" />
        <mxCell id="7gMUFxoWSj_ZCwbCSBnZ-34" style="edgeStyle=none;curved=1;rounded=0;orthogonalLoop=1;jettySize=auto;html=1;exitX=0.5;exitY=1;exitDx=0;exitDy=0;fontSize=12;startSize=8;endSize=8;endArrow=none;startFill=0;" parent="WIyWlLk6GJQsqaUBKTNV-1" source="dJzJ4FOok2KSSRWXddx8-0" target="7gMUFxoWSj_ZCwbCSBnZ-33" edge="1">
          <mxGeometry relative="1" as="geometry" />
        </mxCell>
        <mxCell id="dJzJ4FOok2KSSRWXddx8-0" value="User" style="rounded=0;whiteSpace=wrap;html=1;" parent="WIyWlLk6GJQsqaUBKTNV-1" vertex="1">
          <mxGeometry x="40" y="100" width="120" height="60" as="geometry" />
        </mxCell>
        <mxCell id="7gMUFxoWSj_ZCwbCSBnZ-28" style="edgeStyle=none;curved=1;rounded=0;orthogonalLoop=1;jettySize=auto;html=1;exitX=1;exitY=0.5;exitDx=0;exitDy=0;entryX=0;entryY=0.5;entryDx=0;entryDy=0;fontSize=12;startSize=8;endSize=8;endArrow=none;startFill=0;" parent="WIyWlLk6GJQsqaUBKTNV-1" source="7gMUFxoWSj_ZCwbCSBnZ-0" target="7gMUFxoWSj_ZCwbCSBnZ-27" edge="1">
          <mxGeometry relative="1" as="geometry" />
        </mxCell>
        <mxCell id="7gMUFxoWSj_ZCwbCSBnZ-0" value="Server&lt;br&gt;(Datenbank)" style="rounded=0;whiteSpace=wrap;html=1;" parent="WIyWlLk6GJQsqaUBKTNV-1" vertex="1">
          <mxGeometry x="515" y="100" width="120" height="60" as="geometry" />
        </mxCell>
        <mxCell id="7gMUFxoWSj_ZCwbCSBnZ-6" style="edgeStyle=none;curved=1;rounded=0;orthogonalLoop=1;jettySize=auto;html=1;exitX=1;exitY=0.5;exitDx=0;exitDy=0;entryX=0;entryY=0.5;entryDx=0;entryDy=0;fontSize=12;startSize=8;endSize=8;strokeColor=default;endArrow=none;startFill=0;" parent="WIyWlLk6GJQsqaUBKTNV-1" source="7gMUFxoWSj_ZCwbCSBnZ-2" target="7gMUFxoWSj_ZCwbCSBnZ-0" edge="1">
          <mxGeometry relative="1" as="geometry" />
        </mxCell>
        <mxCell id="7gMUFxoWSj_ZCwbCSBnZ-7" style="edgeStyle=none;curved=1;rounded=0;orthogonalLoop=1;jettySize=auto;html=1;entryX=1;entryY=0.5;entryDx=0;entryDy=0;fontSize=12;startSize=8;endSize=8;endArrow=none;startFill=0;exitX=0;exitY=0.5;exitDx=0;exitDy=0;" parent="WIyWlLk6GJQsqaUBKTNV-1" source="7gMUFxoWSj_ZCwbCSBnZ-2" target="dJzJ4FOok2KSSRWXddx8-0" edge="1">
          <mxGeometry relative="1" as="geometry" />
        </mxCell>
        <mxCell id="7gMUFxoWSj_ZCwbCSBnZ-2" value="authentifiziert" style="rhombus;whiteSpace=wrap;html=1;" parent="WIyWlLk6GJQsqaUBKTNV-1" vertex="1">
          <mxGeometry x="280" y="100" width="110" height="60" as="geometry" />
        </mxCell>
        <mxCell id="7gMUFxoWSj_ZCwbCSBnZ-20" style="edgeStyle=none;curved=1;rounded=0;orthogonalLoop=1;jettySize=auto;html=1;exitX=1;exitY=0.5;exitDx=0;exitDy=0;entryX=0;entryY=0.5;entryDx=0;entryDy=0;fontSize=12;startSize=8;endSize=8;endArrow=none;startFill=0;" parent="WIyWlLk6GJQsqaUBKTNV-1" source="7gMUFxoWSj_ZCwbCSBnZ-8" target="dJzJ4FOok2KSSRWXddx8-0" edge="1">
          <mxGeometry relative="1" as="geometry" />
        </mxCell>
        <mxCell id="7gMUFxoWSj_ZCwbCSBnZ-8" value="&lt;u&gt;User_ID&lt;/u&gt;" style="ellipse;whiteSpace=wrap;html=1;" parent="WIyWlLk6GJQsqaUBKTNV-1" vertex="1">
          <mxGeometry x="-110" y="105" width="110" height="50" as="geometry" />
        </mxCell>
        <mxCell id="7gMUFxoWSj_ZCwbCSBnZ-42" style="edgeStyle=none;curved=1;rounded=0;orthogonalLoop=1;jettySize=auto;html=1;exitX=0.5;exitY=1;exitDx=0;exitDy=0;entryX=0.5;entryY=0;entryDx=0;entryDy=0;fontSize=12;startSize=8;endSize=8;endArrow=none;startFill=0;" parent="WIyWlLk6GJQsqaUBKTNV-1" source="7gMUFxoWSj_ZCwbCSBnZ-11" target="7gMUFxoWSj_ZCwbCSBnZ-41" edge="1">
          <mxGeometry relative="1" as="geometry" />
        </mxCell>
        <mxCell id="7vK1OVf8iRny5cs2jzCh-10" style="edgeStyle=orthogonalEdgeStyle;rounded=0;orthogonalLoop=1;jettySize=auto;html=1;exitX=1;exitY=0.5;exitDx=0;exitDy=0;entryX=0;entryY=0.5;entryDx=0;entryDy=0;endArrow=none;endFill=1;startFill=0;" edge="1" parent="WIyWlLk6GJQsqaUBKTNV-1" source="7gMUFxoWSj_ZCwbCSBnZ-11" target="7vK1OVf8iRny5cs2jzCh-7">
          <mxGeometry relative="1" as="geometry" />
        </mxCell>
        <mxCell id="7gMUFxoWSj_ZCwbCSBnZ-11" value="Obsidian" style="rounded=0;whiteSpace=wrap;html=1;" parent="WIyWlLk6GJQsqaUBKTNV-1" vertex="1">
          <mxGeometry x="40" y="320" width="120" height="60" as="geometry" />
        </mxCell>
        <mxCell id="7gMUFxoWSj_ZCwbCSBnZ-23" style="edgeStyle=none;curved=1;rounded=0;orthogonalLoop=1;jettySize=auto;html=1;exitX=1;exitY=1;exitDx=0;exitDy=0;fontSize=12;startSize=8;endSize=8;entryX=0.5;entryY=0;entryDx=0;entryDy=0;endArrow=none;startFill=0;" parent="WIyWlLk6GJQsqaUBKTNV-1" source="7gMUFxoWSj_ZCwbCSBnZ-12" target="7gMUFxoWSj_ZCwbCSBnZ-22" edge="1">
          <mxGeometry relative="1" as="geometry" />
        </mxCell>
        <mxCell id="7gMUFxoWSj_ZCwbCSBnZ-12" value="Server Owner" style="rounded=0;whiteSpace=wrap;html=1;" parent="WIyWlLk6GJQsqaUBKTNV-1" vertex="1">
          <mxGeometry x="280" y="-100" width="120" height="60" as="geometry" />
        </mxCell>
        <mxCell id="7gMUFxoWSj_ZCwbCSBnZ-13" value="1" style="text;html=1;align=center;verticalAlign=middle;resizable=0;points=[];autosize=1;strokeColor=none;fillColor=none;fontSize=16;" parent="WIyWlLk6GJQsqaUBKTNV-1" vertex="1">
          <mxGeometry x="434" y="100" width="30" height="30" as="geometry" />
        </mxCell>
        <mxCell id="7gMUFxoWSj_ZCwbCSBnZ-14" value="n" style="text;html=1;align=center;verticalAlign=middle;resizable=0;points=[];autosize=1;strokeColor=none;fillColor=none;fontSize=16;" parent="WIyWlLk6GJQsqaUBKTNV-1" vertex="1">
          <mxGeometry x="210" y="100" width="30" height="30" as="geometry" />
        </mxCell>
        <mxCell id="7gMUFxoWSj_ZCwbCSBnZ-15" value="(0,100)" style="text;html=1;align=center;verticalAlign=middle;resizable=0;points=[];autosize=1;strokeColor=none;fillColor=none;fontSize=16;" parent="WIyWlLk6GJQsqaUBKTNV-1" vertex="1">
          <mxGeometry x="190" y="130" width="70" height="30" as="geometry" />
        </mxCell>
        <mxCell id="7gMUFxoWSj_ZCwbCSBnZ-16" value="(1,*)" style="text;html=1;align=center;verticalAlign=middle;resizable=0;points=[];autosize=1;strokeColor=none;fillColor=none;fontSize=16;" parent="WIyWlLk6GJQsqaUBKTNV-1" vertex="1">
          <mxGeometry x="424" y="130" width="50" height="30" as="geometry" />
        </mxCell>
        <mxCell id="7gMUFxoWSj_ZCwbCSBnZ-19" value="Obsidian_Plugin" style="rounded=0;whiteSpace=wrap;html=1;" parent="WIyWlLk6GJQsqaUBKTNV-1" vertex="1">
          <mxGeometry x="40" y="560" width="120" height="60" as="geometry" />
        </mxCell>
        <mxCell id="7gMUFxoWSj_ZCwbCSBnZ-24" style="edgeStyle=none;curved=1;rounded=0;orthogonalLoop=1;jettySize=auto;html=1;exitX=0.5;exitY=1;exitDx=0;exitDy=0;entryX=0.5;entryY=0;entryDx=0;entryDy=0;fontSize=12;startSize=8;endSize=8;endArrow=none;startFill=0;" parent="WIyWlLk6GJQsqaUBKTNV-1" source="7gMUFxoWSj_ZCwbCSBnZ-22" target="7gMUFxoWSj_ZCwbCSBnZ-0" edge="1">
          <mxGeometry relative="1" as="geometry" />
        </mxCell>
        <mxCell id="7gMUFxoWSj_ZCwbCSBnZ-22" value="owns" style="rhombus;whiteSpace=wrap;html=1;" parent="WIyWlLk6GJQsqaUBKTNV-1" vertex="1">
          <mxGeometry x="429" y="-20" width="110" height="60" as="geometry" />
        </mxCell>
        <mxCell id="7gMUFxoWSj_ZCwbCSBnZ-27" value="&lt;u&gt;Token&lt;/u&gt;" style="ellipse;whiteSpace=wrap;html=1;" parent="WIyWlLk6GJQsqaUBKTNV-1" vertex="1">
          <mxGeometry x="680" y="105" width="110" height="50" as="geometry" />
        </mxCell>
        <mxCell id="7gMUFxoWSj_ZCwbCSBnZ-31" style="edgeStyle=none;curved=1;rounded=0;orthogonalLoop=1;jettySize=auto;html=1;exitX=0.5;exitY=0;exitDx=0;exitDy=0;entryX=0;entryY=1;entryDx=0;entryDy=0;fontSize=12;startSize=8;endSize=8;endArrow=none;startFill=0;" parent="WIyWlLk6GJQsqaUBKTNV-1" source="7gMUFxoWSj_ZCwbCSBnZ-29" target="7gMUFxoWSj_ZCwbCSBnZ-2" edge="1">
          <mxGeometry relative="1" as="geometry" />
        </mxCell>
        <mxCell id="7gMUFxoWSj_ZCwbCSBnZ-29" value="&lt;u&gt;Safety_Token&lt;/u&gt;" style="ellipse;whiteSpace=wrap;html=1;" parent="WIyWlLk6GJQsqaUBKTNV-1" vertex="1">
          <mxGeometry x="230" y="180" width="110" height="50" as="geometry" />
        </mxCell>
        <mxCell id="7gMUFxoWSj_ZCwbCSBnZ-35" style="edgeStyle=none;curved=1;rounded=0;orthogonalLoop=1;jettySize=auto;html=1;exitX=0.5;exitY=1;exitDx=0;exitDy=0;entryX=0.5;entryY=0;entryDx=0;entryDy=0;fontSize=12;startSize=8;endSize=8;endArrow=none;startFill=0;" parent="WIyWlLk6GJQsqaUBKTNV-1" source="7gMUFxoWSj_ZCwbCSBnZ-33" target="7gMUFxoWSj_ZCwbCSBnZ-11" edge="1">
          <mxGeometry relative="1" as="geometry" />
        </mxCell>
        <mxCell id="7gMUFxoWSj_ZCwbCSBnZ-33" value="owns" style="rhombus;whiteSpace=wrap;html=1;" parent="WIyWlLk6GJQsqaUBKTNV-1" vertex="1">
          <mxGeometry x="45" y="210" width="110" height="60" as="geometry" />
        </mxCell>
        <mxCell id="7gMUFxoWSj_ZCwbCSBnZ-36" value="1" style="text;html=1;align=center;verticalAlign=middle;resizable=0;points=[];autosize=1;strokeColor=none;fillColor=none;fontSize=16;" parent="WIyWlLk6GJQsqaUBKTNV-1" vertex="1">
          <mxGeometry x="70" y="160" width="30" height="30" as="geometry" />
        </mxCell>
        <mxCell id="7gMUFxoWSj_ZCwbCSBnZ-37" value="1" style="text;html=1;align=center;verticalAlign=middle;resizable=0;points=[];autosize=1;strokeColor=none;fillColor=none;fontSize=16;" parent="WIyWlLk6GJQsqaUBKTNV-1" vertex="1">
          <mxGeometry x="70" y="290" width="30" height="30" as="geometry" />
        </mxCell>
        <mxCell id="7gMUFxoWSj_ZCwbCSBnZ-43" style="edgeStyle=none;curved=1;rounded=0;orthogonalLoop=1;jettySize=auto;html=1;exitX=0.5;exitY=1;exitDx=0;exitDy=0;entryX=0.5;entryY=0;entryDx=0;entryDy=0;fontSize=12;startSize=8;endSize=8;endArrow=none;startFill=0;" parent="WIyWlLk6GJQsqaUBKTNV-1" source="7gMUFxoWSj_ZCwbCSBnZ-41" target="7gMUFxoWSj_ZCwbCSBnZ-19" edge="1">
          <mxGeometry relative="1" as="geometry" />
        </mxCell>
        <mxCell id="7gMUFxoWSj_ZCwbCSBnZ-41" value="uses" style="rhombus;whiteSpace=wrap;html=1;" parent="WIyWlLk6GJQsqaUBKTNV-1" vertex="1">
          <mxGeometry x="45" y="440" width="110" height="60" as="geometry" />
        </mxCell>
        <mxCell id="7gMUFxoWSj_ZCwbCSBnZ-44" value="1" style="text;html=1;align=center;verticalAlign=middle;resizable=0;points=[];autosize=1;strokeColor=none;fillColor=none;fontSize=16;" parent="WIyWlLk6GJQsqaUBKTNV-1" vertex="1">
          <mxGeometry x="70" y="380" width="30" height="30" as="geometry" />
        </mxCell>
        <mxCell id="7gMUFxoWSj_ZCwbCSBnZ-45" value="1" style="text;html=1;align=center;verticalAlign=middle;resizable=0;points=[];autosize=1;strokeColor=none;fillColor=none;fontSize=16;" parent="WIyWlLk6GJQsqaUBKTNV-1" vertex="1">
          <mxGeometry x="69" y="531" width="30" height="30" as="geometry" />
        </mxCell>
        <mxCell id="7gMUFxoWSj_ZCwbCSBnZ-48" style="edgeStyle=none;curved=1;rounded=0;orthogonalLoop=1;jettySize=auto;html=1;entryX=1;entryY=0.5;entryDx=0;entryDy=0;fontSize=12;startSize=8;endSize=8;exitX=0;exitY=0.5;exitDx=0;exitDy=0;endArrow=none;startFill=0;" parent="WIyWlLk6GJQsqaUBKTNV-1" source="7gMUFxoWSj_ZCwbCSBnZ-47" target="7gMUFxoWSj_ZCwbCSBnZ-19" edge="1">
          <mxGeometry relative="1" as="geometry" />
        </mxCell>
        <mxCell id="7gMUFxoWSj_ZCwbCSBnZ-49" style="edgeStyle=none;curved=1;rounded=0;orthogonalLoop=1;jettySize=auto;html=1;exitX=1;exitY=0.5;exitDx=0;exitDy=0;entryX=0.5;entryY=1;entryDx=0;entryDy=0;fontSize=12;startSize=8;endSize=8;endArrow=none;endFill=1;startFill=0;" parent="WIyWlLk6GJQsqaUBKTNV-1" source="7gMUFxoWSj_ZCwbCSBnZ-47" target="7gMUFxoWSj_ZCwbCSBnZ-0" edge="1">
          <mxGeometry relative="1" as="geometry" />
        </mxCell>
        <mxCell id="7gMUFxoWSj_ZCwbCSBnZ-47" value="communicates" style="rhombus;whiteSpace=wrap;html=1;" parent="WIyWlLk6GJQsqaUBKTNV-1" vertex="1">
          <mxGeometry x="460" y="490" width="110" height="60" as="geometry" />
        </mxCell>
        <mxCell id="7gMUFxoWSj_ZCwbCSBnZ-50" value="1" style="text;html=1;align=center;verticalAlign=middle;resizable=0;points=[];autosize=1;strokeColor=none;fillColor=none;fontSize=16;" parent="WIyWlLk6GJQsqaUBKTNV-1" vertex="1">
          <mxGeometry x="580" y="170" width="30" height="30" as="geometry" />
        </mxCell>
        <mxCell id="7gMUFxoWSj_ZCwbCSBnZ-51" value="n" style="text;html=1;align=center;verticalAlign=middle;resizable=0;points=[];autosize=1;strokeColor=none;fillColor=none;fontSize=16;" parent="WIyWlLk6GJQsqaUBKTNV-1" vertex="1">
          <mxGeometry x="160" y="585" width="30" height="30" as="geometry" />
        </mxCell>
        <mxCell id="7vK1OVf8iRny5cs2jzCh-1" value="(1,*)" style="text;html=1;align=center;verticalAlign=middle;resizable=0;points=[];autosize=1;strokeColor=none;fillColor=none;fontSize=16;" vertex="1" parent="WIyWlLk6GJQsqaUBKTNV-1">
          <mxGeometry x="99" y="160" width="50" height="30" as="geometry" />
        </mxCell>
        <mxCell id="7vK1OVf8iRny5cs2jzCh-2" value="(1,*)" style="text;html=1;align=center;verticalAlign=middle;resizable=0;points=[];autosize=1;strokeColor=none;fillColor=none;fontSize=16;" vertex="1" parent="WIyWlLk6GJQsqaUBKTNV-1">
          <mxGeometry x="100" y="290" width="50" height="30" as="geometry" />
        </mxCell>
        <mxCell id="7vK1OVf8iRny5cs2jzCh-3" value="(1,*)" style="text;html=1;align=center;verticalAlign=middle;resizable=0;points=[];autosize=1;strokeColor=none;fillColor=none;fontSize=16;" vertex="1" parent="WIyWlLk6GJQsqaUBKTNV-1">
          <mxGeometry x="100" y="380" width="50" height="30" as="geometry" />
        </mxCell>
        <mxCell id="7vK1OVf8iRny5cs2jzCh-4" value="(1,*)" style="text;html=1;align=center;verticalAlign=middle;resizable=0;points=[];autosize=1;strokeColor=none;fillColor=none;fontSize=16;" vertex="1" parent="WIyWlLk6GJQsqaUBKTNV-1">
          <mxGeometry x="99" y="530" width="50" height="30" as="geometry" />
        </mxCell>
        <mxCell id="7vK1OVf8iRny5cs2jzCh-5" value="1" style="text;html=1;align=center;verticalAlign=middle;resizable=0;points=[];autosize=1;strokeColor=none;fillColor=none;" vertex="1" parent="WIyWlLk6GJQsqaUBKTNV-1">
          <mxGeometry x="400" y="-70" width="30" height="30" as="geometry" />
        </mxCell>
        <mxCell id="7vK1OVf8iRny5cs2jzCh-6" value="n" style="text;html=1;align=center;verticalAlign=middle;resizable=0;points=[];autosize=1;strokeColor=none;fillColor=none;" vertex="1" parent="WIyWlLk6GJQsqaUBKTNV-1">
          <mxGeometry x="570" y="70" width="30" height="30" as="geometry" />
        </mxCell>
        <mxCell id="7vK1OVf8iRny5cs2jzCh-11" style="edgeStyle=orthogonalEdgeStyle;rounded=0;orthogonalLoop=1;jettySize=auto;html=1;exitX=1;exitY=0.5;exitDx=0;exitDy=0;entryX=0;entryY=1;entryDx=0;entryDy=0;endArrow=none;startFill=0;" edge="1" parent="WIyWlLk6GJQsqaUBKTNV-1" source="7vK1OVf8iRny5cs2jzCh-7" target="7gMUFxoWSj_ZCwbCSBnZ-0">
          <mxGeometry relative="1" as="geometry">
            <Array as="points">
              <mxPoint x="515" y="350" />
            </Array>
          </mxGeometry>
        </mxCell>
        <mxCell id="7vK1OVf8iRny5cs2jzCh-7" value="file exchange" style="rhombus;whiteSpace=wrap;html=1;" vertex="1" parent="WIyWlLk6GJQsqaUBKTNV-1">
          <mxGeometry x="324" y="320" width="110" height="60" as="geometry" />
        </mxCell>
        <mxCell id="7vK1OVf8iRny5cs2jzCh-9" style="edgeStyle=orthogonalEdgeStyle;rounded=0;orthogonalLoop=1;jettySize=auto;html=1;exitX=1;exitY=0.5;exitDx=0;exitDy=0;entryX=0;entryY=0.5;entryDx=0;entryDy=0;endArrow=none;startFill=0;" edge="1" parent="WIyWlLk6GJQsqaUBKTNV-1" source="7vK1OVf8iRny5cs2jzCh-8" target="7gMUFxoWSj_ZCwbCSBnZ-12">
          <mxGeometry relative="1" as="geometry" />
        </mxCell>
        <mxCell id="7vK1OVf8iRny5cs2jzCh-8" value="&lt;u&gt;Owner_ID&lt;/u&gt;" style="ellipse;whiteSpace=wrap;html=1;" vertex="1" parent="WIyWlLk6GJQsqaUBKTNV-1">
          <mxGeometry x="130" y="-95" width="110" height="50" as="geometry" />
        </mxCell>
        <mxCell id="7vK1OVf8iRny5cs2jzCh-12" value="n" style="text;html=1;align=center;verticalAlign=middle;resizable=0;points=[];autosize=1;strokeColor=none;fillColor=none;" vertex="1" parent="WIyWlLk6GJQsqaUBKTNV-1">
          <mxGeometry x="170" y="320" width="30" height="30" as="geometry" />
        </mxCell>
        <mxCell id="7vK1OVf8iRny5cs2jzCh-13" value="1" style="text;html=1;align=center;verticalAlign=middle;resizable=0;points=[];autosize=1;strokeColor=none;fillColor=none;" vertex="1" parent="WIyWlLk6GJQsqaUBKTNV-1">
          <mxGeometry x="485" y="160" width="30" height="30" as="geometry" />
        </mxCell>
      </root>
    </mxGraphModel>
  </diagram>
</mxfile>
